<svg width="598.2455688476563px" height="120.8px" xmlns="http://www.w3.org/2000/svg" viewBox="-49.122784423828136 14.600000000000001 598.2455688476563 120.8" style="background: rgba(0, 0, 0, 0);" preserveAspectRatio="xMidYMid"><defs><linearGradient id="editing-outline-gradient" x1="-0.41354545764260087" x2="1.4135454576426008" y1="0.09326335692419985" y2="0.9067366430758002"><stop offset="0" stop-color="#ff33cc"></stop><stop offset="1" stop-color="#33ccff"></stop></linearGradient><filter id="editing-outline" x="-100%" y="-100%" width="300%" height="300%"><feMorphology in="SourceGraphic" operator="dilate" radius="3" result="outline"></feMorphology><feComposite operator="out" in="outline" in2="SourceAlpha"></feComposite></filter></defs><g filter="url(#editing-outline)"><g transform="translate(37.64710721373558, 99)"><path d="M30.21-33.92L30.21-33.92L30.21-33.92Q25.02-33.92 21.25-35.65L21.25-35.65L19.20-25.28L31.55-25.28L31.55-25.28Q31.55-21.89 29.86-19.74L29.86-19.74L29.86-19.74Q28.16-17.60 25.09-17.60L25.09-17.60L25.09-17.60Q21.76-17.60 18.69-18.82L18.69-18.82L18.69-18.82Q18.05-19.07 17.98-19.14L17.98-19.14L14.34 0L0.38 0L8.51-42.24L37.06-42.24L37.06-42.24Q37.06-38.34 35.23-36.13L35.23-36.13L35.23-36.13Q33.41-33.92 30.21-33.92ZM37.79-1.92L37.79-1.92L37.79-1.92Q36.29-3.58 35.62-6.21L35.62-6.21L35.62-6.21Q34.94-8.83 34.94-13.12L34.94-13.12L34.94-13.12Q34.94-17.41 36.42-21.31L36.42-21.31L36.42-21.31Q37.89-25.22 40.58-28.03L40.58-28.03L40.58-28.03Q46.08-33.92 55.17-33.92L55.17-33.92L55.17-33.92Q58.43-33.92 60.80-32.83L60.80-32.83L71.74-33.92L67.01-8.96L67.01-8.96Q66.82-8.19 66.82-6.78L66.82-6.78L66.82-6.78Q66.82-5.38 67.68-4.48L67.68-4.48L67.68-4.48Q68.54-3.58 69.82-3.46L69.82-3.46L69.82-3.46Q69.18-1.28 66.85 0L66.85 0L66.85 0Q64.51 1.28 61.89 1.28L61.89 1.28L61.89 1.28Q59.26 1.28 57.50 0.29L57.50 0.29L57.50 0.29Q55.74-0.70 55.23-2.37L55.23-2.37L55.23-2.37Q54.21-0.77 52.03 0.26L52.03 0.26L52.03 0.26Q49.86 1.28 46.94 1.28L46.94 1.28L46.94 1.28Q44.03 1.28 41.66 0.51L41.66 0.51L41.66 0.51Q39.30-0.26 37.79-1.92ZM51.30-27.90L51.30-27.90L51.30-27.90Q50.56-26.75 49.92-24.80L49.92-24.80L49.92-24.80Q49.28-22.85 48.22-17.63L48.22-17.63L48.22-17.63Q47.17-12.42 47.17-8.70L47.17-8.70L47.17-8.70Q47.17-4.99 47.74-3.90L47.74-3.90L47.74-3.90Q48.32-2.82 49.34-2.82L49.34-2.82L49.34-2.82Q51.39-2.82 52.90-4.77L52.90-4.77L52.90-4.77Q54.40-6.72 54.98-10.18L54.98-10.18L58.37-28.93L58.37-28.93Q57.02-30.08 55.46-30.08L55.46-30.08L55.46-30.08Q53.89-30.08 52.96-29.57L52.96-29.57L52.96-29.57Q52.03-29.06 51.30-27.90ZM94.34-22.46L94.34-22.46L94.34-22.46Q95.23-24.83 95.23-26.88L95.23-26.88L95.23-26.88Q95.23-30.66 92.16-30.66L92.16-30.66L92.16-30.66Q90.56-30.66 89.25-29.22L89.25-29.22L89.25-29.22Q87.94-27.78 87.94-25.98L87.94-25.98L87.94-25.98Q87.94-24.70 88.96-23.68L88.96-23.68L88.96-23.68Q90.43-22.27 94.21-19.97L94.21-19.97L94.21-19.97Q97.98-17.66 99.42-15.78L99.42-15.78L99.42-15.78Q100.86-13.89 100.86-11.30L100.86-11.30L100.86-11.30Q100.86-8.70 99.62-6.34L99.62-6.34L99.62-6.34Q98.37-3.97 96.13-2.30L96.13-2.30L96.13-2.30Q91.33 1.28 83.65 1.28L83.65 1.28L83.65 1.28Q79.49 1.28 76.29-0.90L76.29-0.90L76.29-0.90Q73.09-3.01 73.09-5.50L73.09-5.50L73.09-5.50Q73.09-8 74.91-9.47L74.91-9.47L74.91-9.47Q76.74-10.94 79.42-10.94L79.42-10.94L79.42-10.94Q82.11-10.94 83.78-9.92L83.78-9.92L83.78-9.92Q82.94-7.81 82.94-6.40L82.94-6.40L82.94-6.40Q82.94-2.18 86.53-2.18L86.53-2.18L86.53-2.18Q88.06-2.18 89.09-3.14L89.09-3.14L89.09-3.14Q90.11-4.10 90.11-5.76L90.11-5.76L90.11-5.76Q90.11-9.02 84.61-12.48L84.61-12.48L84.61-12.48Q80.13-15.42 79.10-16.58L79.10-16.58L79.10-16.58Q77.38-18.62 77.38-21.18L77.38-21.18L77.38-21.18Q77.38-23.74 78.59-26.18L78.59-26.18L78.59-26.18Q79.81-28.61 82.05-30.34L82.05-30.34L82.05-30.34Q86.72-33.92 94.85-33.92L94.85-33.92L94.85-33.92Q99.01-33.92 101.47-32.26L101.47-32.26L101.47-32.26Q103.94-30.59 103.94-27.78L103.94-27.78L103.94-27.78Q103.94-24.96 102.24-23.36L102.24-23.36L102.24-23.36Q100.54-21.76 97.47-21.76L97.47-21.76L97.47-21.76Q95.36-21.76 94.34-22.46ZM107.33-6.40L107.33-6.40L107.33-6.40Q107.33-8.13 108.22-12.48L108.22-12.48L111.62-29.76L107.84-29.76L108.10-31.68L108.10-31.68Q115.78-33.98 123.20-39.62L123.20-39.62L126.27-39.62L124.74-32.64L129.73-32.64L129.15-29.76L124.22-29.76L120.96-12.48L120.96-12.48Q120.13-8.51 120.13-7.17L120.13-7.17L120.13-7.17Q120.13-4.10 122.82-3.46L122.82-3.46L122.82-3.46Q122.18-1.28 119.87 0L119.87 0L119.87 0Q117.57 1.28 114.30 1.28L114.30 1.28L114.30 1.28Q111.04 1.28 109.18-0.77L109.18-0.77L109.18-0.77Q107.33-2.82 107.33-6.40ZM142.53 0L128.83 0L136.64-42.05L136.64-42.05Q142.98-42.75 152.22-42.75L152.22-42.75L152.22-42.75Q161.47-42.75 165.76-40.06L165.76-40.06L165.76-40.06Q170.05-37.38 170.05-31.97L170.05-31.97L170.05-31.97Q170.05-26.56 167.26-23.17L167.26-23.17L167.26-23.17Q164.48-19.78 159.68-18.69L159.68-18.69L159.68-18.69Q160.77-13.38 163.26-9.09L163.26-9.09L163.26-9.09Q165.57-5.06 168.26-3.78L168.26-3.78L168.26-3.78Q167.30-1.09 165.34 0.10L165.34 0.10L165.34 0.10Q163.39 1.28 160.61 1.28L160.61 1.28L160.61 1.28Q157.82 1.28 155.65-0.35L155.65-0.35L155.65-0.35Q153.47-1.98 151.74-4.99L151.74-4.99L151.74-4.99Q148.10-11.52 147.71-21.82L147.71-21.82L148.16-21.82L148.16-21.82Q152.90-21.95 155.26-24.42L155.26-24.42L155.26-24.42Q157.63-26.88 157.63-32.06L157.63-32.06L157.63-32.06Q157.63-38.53 152.19-38.78L152.19-38.78L150.78-38.78L150.78-38.78Q150.21-38.78 149.89-38.72L149.89-38.72L142.53 0ZM175.78-1.92L175.78-1.92L175.78-1.92Q174.27-3.58 173.60-6.21L173.60-6.21L173.60-6.21Q172.93-8.83 172.93-13.12L172.93-13.12L172.93-13.12Q172.93-17.41 174.40-21.31L174.40-21.31L174.40-21.31Q175.87-25.22 178.56-28.03L178.56-28.03L178.56-28.03Q184.06-33.92 193.15-33.92L193.15-33.92L193.15-33.92Q196.42-33.92 198.78-32.83L198.78-32.83L209.73-33.92L204.99-8.96L204.99-8.96Q204.80-8.19 204.80-6.78L204.80-6.78L204.80-6.78Q204.80-5.38 205.66-4.48L205.66-4.48L205.66-4.48Q206.53-3.58 207.81-3.46L207.81-3.46L207.81-3.46Q207.17-1.28 204.83 0L204.83 0L204.83 0Q202.50 1.28 199.87 1.28L199.87 1.28L199.87 1.28Q197.25 1.28 195.49 0.29L195.49 0.29L195.49 0.29Q193.73-0.70 193.22-2.37L193.22-2.37L193.22-2.37Q192.19-0.77 190.02 0.26L190.02 0.26L190.02 0.26Q187.84 1.28 184.93 1.28L184.93 1.28L184.93 1.28Q182.02 1.28 179.65 0.51L179.65 0.51L179.65 0.51Q177.28-0.26 175.78-1.92ZM189.28-27.90L189.28-27.90L189.28-27.90Q188.54-26.75 187.90-24.80L187.90-24.80L187.90-24.80Q187.26-22.85 186.21-17.63L186.21-17.63L186.21-17.63Q185.15-12.42 185.15-8.70L185.15-8.70L185.15-8.70Q185.15-4.99 185.73-3.90L185.73-3.90L185.73-3.90Q186.30-2.82 187.33-2.82L187.33-2.82L187.33-2.82Q189.38-2.82 190.88-4.77L190.88-4.77L190.88-4.77Q192.38-6.72 192.96-10.18L192.96-10.18L196.35-28.93L196.35-28.93Q195.01-30.08 193.44-30.08L193.44-30.08L193.44-30.08Q191.87-30.08 190.94-29.57L190.94-29.57L190.94-29.57Q190.02-29.06 189.28-27.90ZM212.35-3.07L212.35-3.07L220.29-44.80L233.28-46.08L231.30-36.29L231.30-36.29Q230.59-33.28 229.70-31.17L229.70-31.17L229.70-31.17Q231.10-32.96 234.18-33.66L234.18-33.66L234.18-33.66Q235.07-33.92 236.16-33.92L236.16-33.92L236.16-33.92Q242.11-33.92 245.38-30.30L245.38-30.30L245.38-30.30Q248.64-26.69 248.64-19.71L248.64-19.71L248.64-19.71Q248.64-10.62 243.46-4.93L243.46-4.93L243.46-4.93Q237.89 1.28 227.78 1.28L227.78 1.28L227.78 1.28Q220.80 1.28 215.55-1.02L215.55-1.02L215.55-1.02Q213.70-1.86 212.35-3.07ZM228.61-22.40L225.22-3.65L225.22-3.65Q226.56-2.50 228.22-2.50L228.22-2.50L228.22-2.50Q229.89-2.50 230.85-3.14L230.85-3.14L230.85-3.14Q231.81-3.78 232.51-5.06L232.51-5.06L232.51-5.06Q234.43-8.51 235.97-19.07L235.97-19.07L235.97-19.07Q236.42-22.08 236.42-25.09L236.42-25.09L236.42-25.09Q236.42-28.10 235.74-29.06L235.74-29.06L235.74-29.06Q235.07-30.02 233.79-30.02L233.79-30.02L233.79-30.02Q229.89-30.02 228.61-22.40L228.61-22.40ZM251.65-3.07L251.65-3.07L259.58-44.80L272.58-46.08L270.59-36.29L270.59-36.29Q269.89-33.28 268.99-31.17L268.99-31.17L268.99-31.17Q270.40-32.96 273.47-33.66L273.47-33.66L273.47-33.66Q274.37-33.92 275.46-33.92L275.46-33.92L275.46-33.92Q281.41-33.92 284.67-30.30L284.67-30.30L284.67-30.30Q287.94-26.69 287.94-19.71L287.94-19.71L287.94-19.71Q287.94-10.62 282.75-4.93L282.75-4.93L282.75-4.93Q277.18 1.28 267.07 1.28L267.07 1.28L267.07 1.28Q260.10 1.28 254.85-1.02L254.85-1.02L254.85-1.02Q252.99-1.86 251.65-3.07ZM267.90-22.40L264.51-3.65L264.51-3.65Q265.86-2.50 267.52-2.50L267.52-2.50L267.52-2.50Q269.18-2.50 270.14-3.14L270.14-3.14L270.14-3.14Q271.10-3.78 271.81-5.06L271.81-5.06L271.81-5.06Q273.73-8.51 275.26-19.07L275.26-19.07L275.26-19.07Q275.71-22.08 275.71-25.09L275.71-25.09L275.71-25.09Q275.71-28.10 275.04-29.06L275.04-29.06L275.04-29.06Q274.37-30.02 273.09-30.02L273.09-30.02L273.09-30.02Q269.18-30.02 267.90-22.40L267.90-22.40ZM307.14-3.52L307.14-3.52L307.14-3.52Q305.15 1.28 298.82 1.28L298.82 1.28L298.82 1.28Q295.55 1.28 293.50-0.96L293.50-0.96L293.50-0.96Q291.78-2.94 291.78-4.93L291.78-4.93L291.78-4.93Q291.78-10.11 294.14-20.22L294.14-20.22L296.51-32.64L309.50-33.92L305.60-13.70L305.60-13.70Q304.51-8.96 304.51-7.30L304.51-7.30L304.51-7.30Q304.51-3.65 307.14-3.52ZM297.66-41.54L297.66-41.54L297.66-41.54Q297.66-44.03 299.74-45.38L299.74-45.38L299.74-45.38Q301.82-46.72 304.83-46.72L304.83-46.72L304.83-46.72Q307.84-46.72 309.66-45.38L309.66-45.38L309.66-45.38Q311.49-44.03 311.49-41.54L311.49-41.54L311.49-41.54Q311.49-39.04 309.47-37.76L309.47-37.76L309.47-37.76Q307.46-36.48 304.45-36.48L304.45-36.48L304.45-36.48Q301.44-36.48 299.55-37.76L299.55-37.76L299.55-37.76Q297.66-39.04 297.66-41.54ZM313.60-6.40L313.60-6.40L313.60-6.40Q313.60-8.13 314.50-12.48L314.50-12.48L317.89-29.76L314.11-29.76L314.37-31.68L314.37-31.68Q322.05-33.98 329.47-39.62L329.47-39.62L332.54-39.62L331.01-32.64L336-32.64L335.42-29.76L330.50-29.76L327.23-12.48L327.23-12.48Q326.40-8.51 326.40-7.17L326.40-7.17L326.40-7.17Q326.40-4.10 329.09-3.46L329.09-3.46L329.09-3.46Q328.45-1.28 326.14 0L326.14 0L326.14 0Q323.84 1.28 320.58 1.28L320.58 1.28L320.58 1.28Q317.31 1.28 315.46-0.77L315.46-0.77L315.46-0.77Q313.60-2.82 313.60-6.40ZM336.64-15.62L336.64-15.62L336.64-15.62Q336.64-27.71 342.91-35.33L342.91-35.33L342.91-35.33Q349.57-43.58 361.15-43.58L361.15-43.58L361.15-43.58Q369.54-43.58 373.76-39.52L373.76-39.52L373.76-39.52Q377.98-35.46 377.98-26.88L377.98-26.88L377.98-26.88Q377.98-13.82 371.33-6.21L371.33-6.21L371.33-6.21Q364.74 1.28 353.66 1.28L353.66 1.28L353.66 1.28Q345.02 1.28 340.83-3.04L340.83-3.04L340.83-3.04Q336.64-7.36 336.64-15.62ZM353.47-28.86L353.47-28.86L353.47-28.86Q350.59-17.34 350.59-8.26L350.59-8.26L350.59-8.26Q350.59-6.08 351.33-4.67L351.33-4.67L351.33-4.67Q352.06-3.26 354.02-3.26L354.02-3.26L354.02-3.26Q355.97-3.26 357.18-4.19L357.18-4.19L357.18-4.19Q358.40-5.12 359.36-7.23L359.36-7.23L359.36-7.23Q360.90-10.69 362.34-18.02L362.34-18.02L362.34-18.02Q363.78-25.34 363.90-28.38L363.90-28.38L363.90-28.38Q364.03-31.42 364.03-33.73L364.03-33.73L364.03-33.73Q364.03-36.03 363.33-37.50L363.33-37.50L363.33-37.50Q362.62-38.98 360.74-38.98L360.74-38.98L360.74-38.98Q358.85-38.98 357.57-37.82L357.57-37.82L357.57-37.82Q355.20-35.65 353.47-28.86ZM387.71 0L380.67 0L388.35-42.24L402.11-42.24L412.10-13.18L417.41-42.24L424.51-42.18L416.70 0L402.05 0L392.83-27.97L387.71 0Z" fill="url(#editing-outline-gradient)"></path></g></g><style>text {
  font-size: 64px;
  font-family: Arial Black;
  dominant-baseline: central;
  text-anchor: middle;
}</style></svg>